#!OML:ASF F:\VICON\USERDATA\INSTALL\rory3\rory3.ASF
:FULLY-SPECIFIED
:DEGREES
62
root 0.727885 17.7751 -16.7926 0.473476 -6.61134 -9.32251
lowerback 9.20021 2.66305 9.10086
upperback -0.174622 4.65556 2.60619
thorax -4.85214 2.0998 -2.95431
lowerneck -16.1413 -2.90652 -1.38157
upperneck 21.0619 -3.75451 0.302831
head 9.33299 -1.82707 -0.142408
rclavicle -1.69806e-014 -2.8128e-014
rhumerus -21.5342 -6.40082 -83.0894
rradius 30.5732
rwrist -0.161721
rhand -18.3624 25.1764
rfingers 7.12502
rthumb 7.92057 -4.65518
lclavicle -1.69806e-014 -2.8128e-014
lhumerus -37.5217 4.50641 82.8214
lradius 23.7075
lwrist 3.76878
lhand -27.1584 19.4862
lfingers 7.12502
lthumb -0.573091 49.4652
rfemur 7.57332 7.36788 36.3612
rtibia 21.9782
rfoot -19.8796 -6.52039
rtoes -1.42316
lfemur -25.5999 -7.37393 -5.26118
ltibia 9.55451
lfoot -6.2563 14.1801
ltoes -5.45575
63
root 0.745768 17.7741 -16.5909 0.660272 -6.88886 -8.95665
lowerback 8.63504 2.78631 8.80823
upperback -0.113847 4.71305 2.51558
thorax -4.47673 2.1539 -2.8564
lowerneck -16.0327 -2.89208 -1.47103
upperneck 21.0007 -3.7113 0.301791
head 9.29318 -1.81499 -0.120176
rclavicle 4.16268e-014 3.08116e-014
rhumerus -21.2985 -6.35958 -83.1021
rradius 30.4283
rwrist -0.0264436
rhand -18.3448 25.3958
rfingers 7.12502
rthumb 7.93752 -4.43516
lclavicle 4.16268e-014 3.08116e-014
lhumerus -37.5173 5.05349 82.6492
lradius 23.2057
lwrist 3.56769
lhand -27.0286 20.3957
lfingers 7.12502
lthumb -0.447695 50.375
rfemur 7.96146 7.3135 35.7417
rtibia 22.102
rfoot -19.9551 -6.00522
rtoes -2.18151
lfemur -24.8043 -7.02693 -5.80994
ltibia 7.50165
lfoot -6.69639 13.7928
ltoes -0.424475
64
root 0.766649 17.7643 -16.3879 0.872745 -7.03977 -8.74934
lowerback 8.29868 2.86069 8.6861
upperback -0.10923 4.7566 2.42471
thorax -4.27897 2.18673 -2.8663
lowerneck -16.4851 -2.84759 -1.43707
upperneck 21.2629 -3.65744 0.31368
head 9.46749 -1.78253 -0.124341
rclavicle 4.04713e-014 1.18277e-014
rhumerus -21.1691 -6.54251 -83.1223
rradius 30.3065
rwrist 0.267848
rhand -18.6366 25.496
rfingers 7.12502
rthumb 7.6559 -4.34541
lclavicle 4.04713e-014 1.18277e-014
lhumerus -37.5883 5.64333 82.3727
lradius 22.8933
lwrist 3.14844
lhand -26.8099 19.8454
lfingers 7.12502
lthumb -0.236486 49.825
rfemur 8.27978 7.29214 35.3289
rtibia 22.2555
rfoot -19.9679 -5.40277
rtoes -2.23567
lfemur -24.2465 -6.7521 -6.10929
ltibia 5.9521
lfoot -6.16575 13.5445
ltoes 3.21932
65
root 0.783029 17.7222 -16.1941 0.984755 -7.00041 -9.01317
lowerback 8.38136 2.78691 8.93012
upperback -0.243299 4.7072 2.53221
thorax -4.46365 2.14584 -2.89331
lowerneck -16.5724 -2.80096 -1.5825
upperneck 21.5177 -3.56224 0.343542
head 9.576 -1.74547 -0.0812103
rclavicle 3.60546e-014 5.76476e-014
rhumerus -21.2997 -6.56132 -83.1039
rradius 30.1471
rwrist 0.466555
rhand -18.6368 25.4217
rfingers 7.12502
rthumb 7.65573 -4.41977
lclavicle 3.60546e-014 5.76476e-014
lhumerus -38.1002 6.07199 82.2405
lradius 22.9747
lwrist 3.02371
lhand -26.7453 18.4473
lfingers 7.12502
lthumb -0.1741 48.427
rfemur 8.769 7.43073 35.593
rtibia 22.4811
rfoot -19.9849 -5.09684
rtoes -1.85513
lfemur -24.4448 -6.64574 -5.83843
ltibia 5.72725
lfoot -5.37333 13.3594
ltoes 0.188072
66
root 0.797502 17.7284 -16.0031 0.963771 -6.92697 -9.04911
lowerback 8.45184 2.77943 9.07146
upperback -0.316572 4.72365 2.49898
thorax -4.56561 2.14353 -3.01407
lowerneck -16.2994 -2.90001 -1.57289
upperneck 21.424 -3.68953 0.272953
head 9.49192 -1.81361 -0.118672
rclavicle 7.48549e-015 5.96354e-015
rhumerus -21.4182 -6.86166 -83.0901
rradius 30.008
rwrist 0.564848
rhand -18.4797 25.1106
rfingers 7.12502
rthumb 7.80735 -4.7253
lclavicle 7.48549e-015 5.96354e-015
lhumerus -38.437 6.12681 82.1642
lradius 23.0241
lwrist 2.76888
lhand -26.5187 20.3134
lfingers 7.12502
lthumb 0.0448088 50.2931
rfemur 9.31989 7.57986 35.6518
rtibia 22.7254
rfoot -19.7064 -5.09112
rtoes -3.31256
lfemur -24.8873 -6.68435 -5.96307
ltibia 7.17892
lfoot -6.35243 13.3396
ltoes -4.039
67
root 0.816305 17.7241 -15.8098 0.962369 -7.03389 -9.11307
lowerback 8.57389 2.86052 9.26165
upperback -0.333035 4.86118 2.40371
thorax -4.61279 2.20276 -3.23998
lowerneck -16.5617 -2.97665 -1.30267
upperneck 21.4744 -3.8232 0.0973033
head 9.54963 -1.87224 -0.246083
rclavicle -1.78533e-014 3.77691e-015
rhumerus -21.4623 -7.4031 -83.1398
rradius 29.9818
rwrist 0.80353
rhand -18.5322 24.4777
rfingers 7.12502
rthumb 7.75666 -5.36001
lclavicle -1.78533e-014 3.77691e-015
lhumerus -38.4327 6.1705 82.0095
lradius 22.8594
lwrist 2.35891
lhand -26.2262 23.9617
lfingers 7.12502
lthumb 0.3273 53.9411
rfemur 9.87691 7.7821 35.6581
rtibia 22.9434
rfoot -19.169 -5.14642
rtoes -5.60029
lfemur -25.5944 -6.55846 -6.10811
ltibia 9.33673
lfoot -6.94588 13.69
ltoes -3.63171
68
root 0.835383 17.7172 -15.6065 0.792515 -7.11805 -9.04298
lowerback 8.68886 2.87205 9.22144
upperback -0.312292 4.88266 2.36522
thorax -4.65273 2.21246 -3.26734
lowerneck -16.8184 -2.89253 -1.2176
upperneck 21.6943 -3.73052 0.106426
head 9.67254 -1.81895 -0.251342
rclavicle -7.03201e-015 -6.75868e-015
rhumerus -21.6491 -7.5927 -83.1517
rradius 29.913
rwrist 0.954867
rhand -18.6639 24.7202
rfingers 7.12502
rthumb 7.62959 -5.12222
lclavicle -7.03201e-015 -6.75868e-015
lhumerus -38.5448 6.57539 81.7396
lradius 22.4218
lwrist 2.1993
lhand -26.3986 22.8371
lfingers 7.12502
lthumb 0.160741 52.8167
rfemur 10.7047 8.10721 35.5755
rtibia 23.1305
rfoot -18.5051 -5.23951
rtoes -6.05272
lfemur -25.9413 -6.50198 -6.42136
ltibia 11.3538
lfoot -6.99387 13.964
ltoes -1.14987
69
root 0.853211 17.7218 -15.3939 0.611341 -7.21973 -8.9655
lowerback 8.69099 2.93304 9.20504
upperback -0.29612 4.95997 2.34642
thorax -4.62706 2.25246 -3.28539
lowerneck -16.8127 -2.84261 -1.27876
upperneck 21.7711 -3.68213 0.257246
head 9.70283 -1.78368 -0.183175
rclavicle -1.78596e-014 2.45499e-014
rhumerus -21.9235 -8.06255 -82.9951
rradius 29.7251
rwrist 1.11323
rhand -18.3559 25.0619
rfingers 7.12502
rthumb 7.92684 -4.76946
lclavicle -1.78596e-014 2.45499e-014
lhumerus -38.7386 6.99877 81.5019
lradius 21.815
lwrist 2.18187
lhand -26.959 19.6545
lfingers 7.12502
lthumb -0.38045 49.6339
rfemur 11.3994 8.37019 35.4857
rtibia 23.5503
rfoot -17.9883 -5.05751
rtoes -6.62041
lfemur -25.7737 -5.69189 -7.08474
ltibia 12.6238
lfoot -6.50694 13.1099
ltoes -0.467488
70
root 0.872272 17.7283 -15.1783 0.442311 -7.32324 -8.79435
lowerback 8.6998 2.97722 9.00717
upperback -0.258693 4.99799 2.37015
thorax -4.60583 2.27838 -3.15553
lowerneck -16.8861 -2.88115 -1.27919
upperneck 21.7845 -3.71318 0.168411
head 9.7196 -1.80805 -0.219373
rclavicle -5.06124e-014 -1.47101e-014
rhumerus -22.1235 -8.34118 -82.8373
rradius 29.6046
rwrist 1.17511
rhand -18.9777 24.342
rfingers 7.12502
rthumb 7.32669 -5.51118
lclavicle -5.06124e-014 -1.47101e-014
lhumerus -38.9018 7.4885 81.3373
lradius 21.4409
lwrist 1.98071
lhand -26.884 19.2206
lfingers 7.12502
lthumb -0.308075 49.2002
rfemur 11.9622 8.4549 35.25
rtibia 24.0705
rfoot -17.4461 -4.62328
rtoes -8.1255
lfemur -25.545 -5.11721 -7.7403
ltibia 13.4804
lfoot -4.92738 11.9686
ltoes 0.199389
71
root 0.894902 17.7377 -14.961 0.37137 -7.25193 -8.4616
lowerback 8.42118 2.92534 8.72904
upperback -0.170778 4.85983 2.31021
thorax -4.38808 2.22908 -3.02948
lowerneck -16.9616 -2.89909 -1.2141
upperneck 21.7619 -3.71304 -0.00210279
head 9.72059 -1.82231 -0.290324
rclavicle 1.40081e-014 1.77912e-014
rhumerus -22.2221 -8.55513 -82.8358
rradius 29.5332
rwrist 1.41734
rhand -20.2485 22.6507
rfingers 7.12502
rthumb 6.09993 -7.2415
lclavicle 1.40081e-014 1.77912e-014
lhumerus -38.9181 7.98572 81.1605
lradius 21.1718
lwrist 1.85072
lhand -26.934 19.7957
lfingers 7.12502
lthumb -0.356328 49.7752
rfemur 12.3564 8.21183 34.722
rtibia 24.616
rfoot -16.6562 -4.01759
rtoes -9.58724
lfemur -25.4929 -4.53205 -8.59551
ltibia 14.152
lfoot -2.74501 10.0272
ltoes 0.73585
72
root 0.91833 17.7721 -14.7444 0.242771 -7.22188 -7.85583
lowerback 8.31296 2.86384 8.16712
upperback -0.135126 4.70509 2.21103
thorax -4.34098 2.16793 -2.80088
lowerneck -16.9448 -2.84348 -1.3977
upperneck 21.8366 -3.59179 0.023302
head 9.7477 -1.77836 -0.235521
rclavicle -2.97369e-014 -1.26228e-014
rhumerus -22.5002 -8.69975 -82.7611
rradius 29.4948
rwrist 1.53934
rhand -20.2958 22.3792
rfingers 7.12502
rthumb 6.05425 -7.51431
lclavicle -2.97369e-014 -1.26228e-014
lhumerus -39.0056 8.48033 81.0376
lradius 20.7364
lwrist 1.71759
lhand -27.4956 19.1332
lfingers 7.12502
lthumb -0.89874 49.1111
rfemur 12.6333 7.92154 33.8345
rtibia 25.2993
rfoot -15.6405 -3.2845
rtoes -10.3028
lfemur -25.2655 -4.11074 -9.6613
ltibia 14.7512
lfoot -0.836861 7.93907
ltoes -0.938706
73
root 0.937523 17.8186 -14.528 0.0220264 -7.23477 -7.4969
lowerback 8.54023 2.91384 7.86708
upperback -0.202097 4.76622 2.10794
thorax -4.54744 2.19374 -2.76706
lowerneck -16.9496 -2.85435 -1.43855
upperneck 22.0561 -3.61501 0.0913884
head 9.82892 -1.78374 -0.210436
rclavicle -3.09172e-014 -3.80673e-014
rhumerus -22.8896 -9.35695 -82.5698
rradius 29.2501
rwrist 1.54417
rhand -19.7907 23.0165
rfingers 7.12502
rthumb 6.54189 -6.86247
lclavicle -3.09172e-014 -3.80673e-014
lhumerus -39.1726 8.8681 80.7498
lradius 20.2941
lwrist 1.1092
lhand -27.2078 18.486
lfingers 7.12502
lthumb -0.620772 48.4648
rfemur 12.9022 7.80107 33.3296
rtibia 26.2029
rfoot -14.4008 -2.77553
rtoes -10.657
lfemur -24.7461 -3.71946 -10.4095
ltibia 15.3013
lfoot 0.230174 5.89267
ltoes -1.70838
74
root 0.955011 17.8599 -14.3014 -0.193646 -7.04335 -6.84533
lowerback 8.55283 2.89953 7.22108
upperback -0.364436 4.68782 1.94492
thorax -4.76887 2.15717 -2.58005
lowerneck -16.6082 -2.85722 -1.46567
upperneck 22.1967 -3.64586 0.19767
head 9.8179 -1.78907 -0.168979
rclavicle -9.79325e-015 -4.47266e-015
rhumerus -23.4108 -10.0169 -82.3672
rradius 28.8077
rwrist 1.75814
rhand -19.6855 23.4339
rfingers 7.12502
rthumb 6.64341 -6.44192
lclavicle -9.79325e-015 -4.47266e-015
lhumerus -39.5833 8.96629 80.5644
lradius 19.9873
lwrist 0.740778
lhand -26.8606 18.4645
lfingers 7.12502
lthumb -0.285468 48.444
rfemur 13.008 7.63037 32.5518
rtibia 27.4416
rfoot -13.0573 -2.43884
rtoes -10.7701
lfemur -24.0999 -3.70554 -11.4429
ltibia 15.6289
lfoot 0.839221 4.21511
ltoes -1.38542
75
root 0.969428 17.8857 -14.0771 -0.42372 -6.61542 -5.95977
lowerback 8.38379 2.78579 6.32985
upperback -0.420208 4.42672 1.73539
thorax -4.80355 2.04706 -2.26962
lowerneck -16.3364 -2.87922 -1.5813
upperneck 22.2225 -3.69366 0.370396
head 9.78271 -1.80228 -0.092014
rclavicle -1.33807e-014 -9.14409e-015
rhumerus -23.8752 -10.6366 -82.2044
rradius 28.4396
rwrist 2.10211
rhand -19.6673 23.8474
rfingers 7.12502
rthumb 6.66097 -6.02785
lclavicle -1.33807e-014 -9.14409e-015
lhumerus -39.763 9.1584 80.3691
lradius 19.5941
lwrist 0.63075
lhand -26.7418 19.1137
lfingers 7.12502
lthumb -0.170754 49.0934
rfemur 12.8106 7.17673 31.4853
rtibia 29.0093
rfoot -11.5938 -2.11277
rtoes -10.8839
lfemur -23.5773 -3.952 -12.6792
ltibia 15.9065
lfoot 1.51322 2.72355
ltoes -1.66513
